<svg version="1.2" xmlns="http://www.w3.org/2000/svg" viewBox="0 0 1080 228" width="1080" height="228"><style>.a{display:none;fill:#fff}</style><path  d="m202.1 40.6c0-29.1-27.6-40.3-52.9-40.3h-147.4v55.7h120.8l-102.9 89c-10.9 9.4-19.6 22-19.6 36.7 0 29.1 28 40.3 53.2 40.3h147.1v-55.7h-120.8l102.9-88.6c10.9-9.4 19.6-22 19.6-37.1zm25.9-40.3v221.7h55.7v-221.7zm204.5 1.8h-122.9v219.9h55v-46.6h67.9c47.6 0 83-40.2 83-86.5 0-46.2-35.4-86.8-83-86.8zm0 118.3h-67.9v-63.3h67.9c16.8 0 28 16.4 28 31.8 0 15.4-11.2 31.5-28 31.5zm319 51.5c-29.4 0-49.7-26.9-49.7-54.6v-115.6h-55v115.6c0 58.1 44.9 110 104.7 110 59.9 0 104.7-51.9 104.7-110v-115.6h-54.9v115.6c0 27.7-20.4 54.6-49.8 54.6zm245.2-169.8h-123v219.9h55v-46.6h68c47.6 0 83-40.2 83-86.5 0-46.2-35.4-86.8-83-86.8zm0 118.3h-68v-63.3h68c16.8 0 28 16.4 28 31.8 0 15.4-11.2 31.5-28 31.5z"/><path class="a" d="m202.1 40.6c0-29.1-27.6-40.3-52.9-40.3h-147.4v55.7h120.8l-102.9 89c-10.9 9.4-19.6 22-19.6 36.7 0 29.1 28 40.3 53.2 40.3h147.1v-55.7h-120.8l102.9-88.6c10.9-9.4 19.6-22 19.6-37.1zm25.9-40.3v221.7h55.7v-221.7zm204.5 1.8h-122.9v219.9h55v-46.6h67.9c47.6 0 83-40.2 83-86.5 0-46.2-35.4-86.8-83-86.8zm0 118.3h-67.9v-63.3h67.9c16.8 0 28 16.4 28 31.8 0 15.4-11.2 31.5-28 31.5zm319 51.5c-29.4 0-49.7-26.9-49.7-54.6v-115.6h-55v115.6c0 58.1 44.9 110 104.7 110 59.9 0 104.7-51.9 104.7-110v-115.6h-54.9v115.6c0 27.7-20.4 54.6-49.8 54.6zm245.2-169.8h-123v219.9h55v-46.6h68c47.6 0 83-40.2 83-86.5 0-46.2-35.4-86.8-83-86.8zm0 118.3h-68v-63.3h68c16.8 0 28 16.4 28 31.8 0 15.4-11.2 31.5-28 31.5z"/></svg>